<svg width="467" height="224" viewBox="0 0 467 224" fill="none" xmlns="http://www.w3.org/2000/svg">
<path d="M120.494 13L101.994 48H93.3438L90.2938 24.45L77.6438 48H68.9438L64.4938 13H72.4938L75.5938 37.6L88.7438 13H96.2438L99.2438 37.8L112.444 13H120.494ZM130.963 19.6H119.763L121.113 13H151.613L150.263 19.6H139.113L133.413 48H125.313L130.963 19.6ZM162.771 19.5L160.921 28.75H177.171L175.821 35.25H159.671L157.121 48H148.971L155.971 13H182.421L181.071 19.5H162.771ZM202.065 13H210.215L203.215 48H195.065L202.065 13ZM223.671 48.6C220.905 48.6 218.255 48.2333 215.721 47.5C213.188 46.7667 211.155 45.8333 209.621 44.7L212.921 38.45C214.521 39.6167 216.321 40.5167 218.321 41.15C220.321 41.7833 222.371 42.1 224.471 42.1C226.705 42.1 228.471 41.7333 229.771 41C231.071 40.2667 231.721 39.2667 231.721 38C231.721 36.9667 231.205 36.1833 230.171 35.65C229.138 35.0833 227.488 34.4833 225.221 33.85C222.955 33.1833 221.105 32.55 219.671 31.95C218.238 31.3167 216.988 30.3833 215.921 29.15C214.888 27.9167 214.371 26.2833 214.371 24.25C214.371 21.8833 215.021 19.8 216.321 18C217.655 16.2 219.521 14.8167 221.921 13.85C224.355 12.8833 227.171 12.4 230.371 12.4C232.738 12.4 234.971 12.6667 237.071 13.2C239.171 13.7 240.971 14.4333 242.471 15.4L239.421 21.6C238.121 20.7 236.655 20.0333 235.021 19.6C233.388 19.1333 231.688 18.9 229.921 18.9C227.621 18.9 225.805 19.3 224.471 20.1C223.138 20.9 222.471 21.9333 222.471 23.2C222.471 23.9667 222.755 24.6167 223.321 25.15C223.888 25.65 224.605 26.0667 225.471 26.4C226.338 26.7 227.555 27.0667 229.121 27.5C231.355 28.1 233.188 28.7167 234.621 29.35C236.055 29.95 237.271 30.85 238.271 32.05C239.305 33.2167 239.821 34.7667 239.821 36.7C239.821 39.1 239.155 41.2 237.821 43C236.488 44.7667 234.605 46.15 232.171 47.15C229.738 48.1167 226.905 48.6 223.671 48.6Z" fill="#BFBFBF"/>
<path d="M243.521 180.6H232.321L233.671 174H264.171L262.821 180.6H251.671L245.971 209H237.871L243.521 180.6ZM300.629 174L293.629 209H285.529L288.379 194.75H272.529L269.679 209H261.529L268.529 174H276.679L273.929 187.75H289.779L292.529 174H300.629ZM315.66 180.5L314.16 188.1H330.41L329.16 194.4H312.86L311.26 202.5H330.36L329.01 209H301.91L308.91 174H335.36L334.01 180.5H315.66ZM374.555 174L367.555 209H360.905L347.855 187.1L343.455 209H335.455L342.455 174H349.155L362.205 195.95L366.555 174H374.555ZM384.986 196.85C385.319 195.117 385.986 193.7 386.986 192.6C387.986 191.467 389.352 190.267 391.086 189C392.552 187.9 393.636 186.967 394.336 186.2C395.036 185.4 395.386 184.45 395.386 183.35C395.386 182.317 394.952 181.5 394.086 180.9C393.252 180.267 392.069 179.95 390.536 179.95C388.936 179.95 387.469 180.283 386.136 180.95C384.802 181.583 383.652 182.517 382.686 183.75L377.436 179.9C378.936 177.867 380.952 176.283 383.486 175.15C386.052 173.983 388.936 173.4 392.136 173.4C395.669 173.4 398.486 174.167 400.586 175.7C402.686 177.2 403.736 179.233 403.736 181.8C403.736 183.367 403.436 184.717 402.836 185.85C402.269 186.983 401.552 187.933 400.686 188.7C399.852 189.467 398.769 190.333 397.436 191.3C395.969 192.367 394.836 193.3 394.036 194.1C393.269 194.867 392.769 195.783 392.536 196.85H384.986ZM386.936 209.4C385.602 209.4 384.502 209 383.636 208.2C382.769 207.367 382.336 206.367 382.336 205.2C382.336 203.8 382.819 202.65 383.786 201.75C384.752 200.85 385.952 200.4 387.386 200.4C388.686 200.4 389.769 200.8 390.636 201.6C391.502 202.367 391.936 203.333 391.936 204.5C391.936 205.867 391.452 207.033 390.486 208C389.519 208.933 388.336 209.4 386.936 209.4Z" fill="#BFBFBF"/>
<path d="M188.1 76L174.1 146H157.9L163.6 117.5H131.9L126.2 146H109.9L123.9 76H140.2L134.7 103.5H166.4L171.9 76H188.1ZM226.962 147.2C219.962 147.2 213.895 145.933 208.762 143.4C203.628 140.867 199.695 137.3 196.962 132.7C194.228 128.1 192.862 122.8 192.862 116.8C192.862 108.867 194.662 101.733 198.262 95.4C201.928 89 207.028 83.9667 213.562 80.3C220.162 76.6333 227.695 74.8 236.162 74.8C243.162 74.8 249.228 76.0667 254.362 78.6C259.495 81.1333 263.428 84.7 266.162 89.3C268.895 93.9 270.262 99.2 270.262 105.2C270.262 113.133 268.428 120.3 264.762 126.7C261.162 133.033 256.062 138.033 249.462 141.7C242.928 145.367 235.428 147.2 226.962 147.2ZM228.362 133.4C233.495 133.4 237.995 132.167 241.862 129.7C245.728 127.233 248.695 123.933 250.762 119.8C252.828 115.667 253.862 111.1 253.862 106.1C253.862 100.767 252.195 96.5333 248.862 93.4C245.528 90.2 240.828 88.6 234.762 88.6C229.628 88.6 225.128 89.8333 221.262 92.3C217.395 94.7667 214.428 98.0667 212.362 102.2C210.295 106.333 209.262 110.9 209.262 115.9C209.262 121.233 210.928 125.5 214.262 128.7C217.595 131.833 222.295 133.4 228.362 133.4ZM329.637 109.9H344.437L338.637 138.7C335.103 141.433 331.003 143.533 326.337 145C321.67 146.467 316.837 147.2 311.837 147.2C304.837 147.2 298.737 145.933 293.537 143.4C288.337 140.867 284.303 137.3 281.437 132.7C278.637 128.1 277.237 122.8 277.237 116.8C277.237 108.867 279.07 101.7 282.737 95.3C286.403 88.9 291.57 83.9 298.237 80.3C304.903 76.6333 312.57 74.8 321.237 74.8C327.903 74.8 333.67 75.8333 338.537 77.9C343.47 79.9667 347.437 83 350.437 87L338.837 96.4C336.503 93.6667 333.87 91.7 330.937 90.5C328.003 89.2333 324.537 88.6 320.537 88.6C315.203 88.6 310.503 89.8 306.437 92.2C302.37 94.5333 299.203 97.7667 296.937 101.9C294.737 106.033 293.637 110.667 293.637 115.8C293.637 121.2 295.37 125.5 298.837 128.7C302.37 131.833 307.403 133.4 313.937 133.4C318.07 133.4 321.937 132.567 325.537 130.9L329.637 109.9Z" fill="white"/>
</svg>
