<svg width="700" height="229" viewBox="0 0 700 229" fill="none" xmlns="http://www.w3.org/2000/svg">
<path d="M236.65 64L215.65 169H191.35L199.9 126.25H152.35L143.8 169H119.35L140.35 64H164.8L156.55 105.25H204.1L212.35 64H236.65ZM294.943 170.8C284.443 170.8 275.343 168.9 267.643 165.1C259.943 161.3 254.043 155.95 249.943 149.05C245.843 142.15 243.793 134.2 243.793 125.2C243.793 113.3 246.493 102.6 251.893 93.1C257.393 83.5 265.043 75.95 274.843 70.45C284.743 64.95 296.043 62.2 308.743 62.2C319.243 62.2 328.343 64.1 336.043 67.9C343.743 71.7 349.643 77.05 353.743 83.95C357.843 90.85 359.893 98.8 359.893 107.8C359.893 119.7 357.143 130.45 351.643 140.05C346.243 149.55 338.593 157.05 328.693 162.55C318.893 168.05 307.643 170.8 294.943 170.8ZM297.043 150.1C304.743 150.1 311.493 148.25 317.293 144.55C323.093 140.85 327.543 135.9 330.643 129.7C333.743 123.5 335.293 116.65 335.293 109.15C335.293 101.15 332.793 94.8 327.793 90.1C322.793 85.3 315.743 82.9 306.643 82.9C298.943 82.9 292.193 84.75 286.393 88.45C280.593 92.15 276.143 97.1 273.043 103.3C269.943 109.5 268.393 116.35 268.393 123.85C268.393 131.85 270.893 138.25 275.893 143.05C280.893 147.75 287.943 150.1 297.043 150.1ZM448.955 114.85H471.155L462.455 158.05C457.155 162.15 451.005 165.3 444.005 167.5C437.005 169.7 429.755 170.8 422.255 170.8C411.755 170.8 402.605 168.9 394.805 165.1C387.005 161.3 380.955 155.95 376.655 149.05C372.455 142.15 370.355 134.2 370.355 125.2C370.355 113.3 373.105 102.55 378.605 92.95C384.105 83.35 391.855 75.85 401.855 70.45C411.855 64.95 423.355 62.2 436.355 62.2C446.355 62.2 455.005 63.75 462.305 66.85C469.705 69.95 475.655 74.5 480.155 80.5L462.755 94.6C459.255 90.5 455.305 87.55 450.905 85.75C446.505 83.85 441.305 82.9 435.305 82.9C427.305 82.9 420.255 84.7 414.155 88.3C408.055 91.8 403.305 96.65 399.905 102.85C396.605 109.05 394.955 116 394.955 123.7C394.955 131.8 397.555 138.25 402.755 143.05C408.055 147.75 415.605 150.1 425.405 150.1C431.605 150.1 437.405 148.85 442.805 146.35L448.955 114.85Z" fill="white"/>
<path d="M6.76 11H13.28L7.68 39H1.16L6.76 11ZM30.685 17.16C33.085 17.16 34.9917 17.8 36.405 19.08C37.8183 20.3333 38.525 22.1333 38.525 24.48C38.525 25.36 38.4317 26.2267 38.245 27.08L35.845 39H29.605L31.925 27.48C32.0317 27.0267 32.085 26.5333 32.085 26C32.085 24.88 31.7783 24.0267 31.165 23.44C30.5517 22.8533 29.6317 22.56 28.405 22.56C26.805 22.56 25.4717 23.0267 24.405 23.96C23.365 24.8667 22.6583 26.24 22.285 28.08L20.125 39H13.885L18.165 17.48H24.085L23.605 19.8C25.525 18.04 27.885 17.16 30.685 17.16ZM50.0213 31.4C49.9679 31.6133 49.9413 31.9067 49.9413 32.28C49.9413 33.6667 50.7013 34.36 52.2213 34.36C53.0479 34.36 53.8879 34.1067 54.7413 33.6L55.6613 38.04C54.2746 38.8933 52.4879 39.32 50.3013 39.32C48.2746 39.32 46.6479 38.7867 45.4213 37.72C44.1946 36.6533 43.5813 35.1867 43.5813 33.32C43.5813 32.7867 43.6479 32.16 43.7813 31.44L45.5013 22.76H42.1813L43.1413 17.96H46.4613L47.5013 12.72H53.7413L52.7013 17.96H58.0613L57.1013 22.76H51.7413L50.0213 31.4ZM68.6041 20.04C69.5374 19.0267 70.6574 18.2933 71.9641 17.84C73.2974 17.3867 74.8574 17.16 76.6441 17.16L75.5241 22.92C74.7774 22.8667 74.2974 22.84 74.0841 22.84C72.1907 22.84 70.6707 23.3067 69.5241 24.24C68.4041 25.1733 67.6441 26.6267 67.2441 28.6L65.1641 39H58.9241L63.2041 17.48H69.1241L68.6041 20.04ZM87.0391 39.32C84.8791 39.32 82.9724 38.92 81.3191 38.12C79.6924 37.32 78.4257 36.2 77.5191 34.76C76.6391 33.2933 76.1991 31.6 76.1991 29.68C76.1991 27.3067 76.7591 25.1733 77.8791 23.28C78.9991 21.3867 80.5457 19.8933 82.5191 18.8C84.4924 17.7067 86.7191 17.16 89.1991 17.16C91.3857 17.16 93.2924 17.56 94.9191 18.36C96.5457 19.16 97.7991 20.2933 98.6791 21.76C99.5857 23.2 100.039 24.88 100.039 26.8C100.039 29.1733 99.4791 31.3067 98.3591 33.2C97.2657 35.0933 95.7191 36.5867 93.7191 37.68C91.7457 38.7733 89.5191 39.32 87.0391 39.32ZM87.4391 34.16C88.6391 34.16 89.7191 33.8667 90.6791 33.28C91.6391 32.6667 92.3857 31.8267 92.9191 30.76C93.4524 29.6933 93.7191 28.4667 93.7191 27.08C93.7191 25.6133 93.2924 24.4533 92.4391 23.6C91.5857 22.7467 90.3857 22.32 88.8391 22.32C87.6124 22.32 86.5191 22.6267 85.5591 23.24C84.5991 23.8267 83.8524 24.6533 83.3191 25.72C82.7857 26.7867 82.5191 28.0133 82.5191 29.4C82.5191 30.8667 82.9457 32.0267 83.7991 32.88C84.6791 33.7333 85.8924 34.16 87.4391 34.16ZM129.771 9.32L123.851 39H117.931L118.371 36.84C116.558 38.4933 114.358 39.32 111.771 39.32C110.091 39.32 108.544 38.9333 107.131 38.16C105.718 37.3867 104.584 36.28 103.731 34.84C102.904 33.3733 102.491 31.6533 102.491 29.68C102.491 27.3067 103.011 25.1733 104.051 23.28C105.118 21.36 106.558 19.8667 108.371 18.8C110.184 17.7067 112.184 17.16 114.371 17.16C115.944 17.16 117.318 17.4267 118.491 17.96C119.691 18.4933 120.638 19.28 121.331 20.32L123.531 9.32H129.771ZM113.691 34.16C114.918 34.16 116.011 33.8667 116.971 33.28C117.931 32.6667 118.678 31.8267 119.211 30.76C119.744 29.6933 120.011 28.4667 120.011 27.08C120.011 25.6133 119.571 24.4533 118.691 23.6C117.838 22.7467 116.638 22.32 115.091 22.32C113.864 22.32 112.771 22.6267 111.811 23.24C110.851 23.8267 110.104 24.6533 109.571 25.72C109.038 26.7867 108.771 28.0133 108.771 29.4C108.771 30.8667 109.198 32.0267 110.051 32.88C110.931 33.7333 112.144 34.16 113.691 34.16ZM155.626 17.48L151.346 39H145.426L145.866 36.68C144.933 37.56 143.866 38.2267 142.666 38.68C141.466 39.1067 140.2 39.32 138.866 39.32C136.52 39.32 134.64 38.68 133.226 37.4C131.84 36.12 131.146 34.32 131.146 32C131.146 31.12 131.24 30.2533 131.426 29.4L133.786 17.48H140.026L137.746 29C137.64 29.5067 137.586 30.0267 137.586 30.56C137.586 32.8 138.786 33.92 141.186 33.92C142.76 33.92 144.053 33.4667 145.066 32.56C146.106 31.6267 146.813 30.24 147.186 28.4L149.386 17.48H155.626ZM168.487 39.32C166.274 39.32 164.341 38.92 162.687 38.12C161.034 37.32 159.754 36.2 158.847 34.76C157.967 33.2933 157.527 31.6 157.527 29.68C157.527 27.3067 158.087 25.1733 159.207 23.28C160.327 21.3867 161.887 19.8933 163.887 18.8C165.887 17.7067 168.141 17.16 170.647 17.16C172.941 17.16 174.914 17.64 176.567 18.6C178.247 19.5333 179.501 20.8667 180.327 22.6L175.047 25.24C174.114 23.2933 172.514 22.32 170.247 22.32C169.021 22.32 167.914 22.6267 166.927 23.24C165.967 23.8267 165.207 24.6533 164.647 25.72C164.114 26.7867 163.847 28 163.847 29.36C163.847 30.8267 164.287 32 165.167 32.88C166.047 33.7333 167.274 34.16 168.847 34.16C171.141 34.16 172.901 33.2 174.127 31.28L178.727 34.16C177.687 35.7867 176.261 37.0533 174.447 37.96C172.661 38.8667 170.674 39.32 168.487 39.32ZM185.04 17.48H191.24L186.96 39H180.76L185.04 17.48ZM189.2 14.48C188.133 14.48 187.253 14.1733 186.56 13.56C185.893 12.92 185.56 12.1467 185.56 11.24C185.56 10.1733 185.933 9.29333 186.68 8.6C187.453 7.88 188.453 7.52 189.68 7.52C190.773 7.52 191.653 7.82666 192.32 8.44C193.013 9.02666 193.36 9.76 193.36 10.64C193.36 11.7867 192.973 12.72 192.2 13.44C191.427 14.1333 190.427 14.48 189.2 14.48ZM209.552 17.16C211.952 17.16 213.859 17.8 215.272 19.08C216.686 20.3333 217.392 22.1333 217.392 24.48C217.392 25.36 217.299 26.2267 217.112 27.08L214.712 39H208.472L210.792 27.48C210.899 27.0267 210.952 26.5333 210.952 26C210.952 24.88 210.646 24.0267 210.032 23.44C209.419 22.8533 208.499 22.56 207.272 22.56C205.672 22.56 204.339 23.0267 203.272 23.96C202.232 24.8667 201.526 26.24 201.152 28.08L198.992 39H192.752L197.032 17.48H202.952L202.472 19.8C204.392 18.04 206.752 17.16 209.552 17.16ZM247.123 17.48L243.563 35.4C242.763 39.4533 241.216 42.4133 238.923 44.28C236.656 46.1467 233.616 47.08 229.803 47.08C227.723 47.08 225.803 46.84 224.043 46.36C222.309 45.88 220.816 45.1733 219.563 44.24L222.523 39.72C223.376 40.44 224.469 41 225.803 41.4C227.163 41.8267 228.589 42.04 230.083 42.04C232.189 42.04 233.789 41.5733 234.883 40.64C235.976 39.7333 236.723 38.3467 237.123 36.48L237.283 35.56C235.549 37.16 233.363 37.96 230.723 37.96C228.936 37.96 227.323 37.6 225.883 36.88C224.443 36.1333 223.296 35.08 222.443 33.72C221.616 32.36 221.203 30.76 221.203 28.92C221.203 26.7333 221.723 24.7467 222.763 22.96C223.803 21.1733 225.229 19.76 227.043 18.72C228.883 17.68 230.936 17.16 233.203 17.16C234.883 17.16 236.349 17.48 237.603 18.12C238.883 18.7333 239.843 19.6933 240.483 21L241.163 17.48H247.123ZM232.403 32.84C234.216 32.84 235.709 32.2533 236.883 31.08C238.056 29.9067 238.643 28.4 238.643 26.56C238.643 25.2533 238.216 24.2267 237.363 23.48C236.509 22.7067 235.323 22.32 233.803 22.32C231.963 22.32 230.443 22.9067 229.243 24.08C228.069 25.2533 227.483 26.76 227.483 28.6C227.483 29.9067 227.923 30.9467 228.803 31.72C229.683 32.4667 230.883 32.84 232.403 32.84Z" fill="#BFBFBF"/>
<path d="M221.045 200.12H213.205L214.15 195.5H235.5L234.555 200.12H226.75L222.76 220H217.09L221.045 200.12ZM248.001 200.89C250.101 200.89 251.769 201.45 253.006 202.57C254.242 203.69 254.861 205.277 254.861 207.33C254.861 208.077 254.779 208.823 254.616 209.57L252.516 220H247.056L249.086 209.92C249.179 209.523 249.226 209.092 249.226 208.625C249.226 207.645 248.957 206.898 248.421 206.385C247.884 205.872 247.079 205.615 246.006 205.615C244.606 205.615 243.439 206.023 242.506 206.84C241.596 207.633 240.977 208.835 240.651 210.445L238.761 220H233.301L238.481 194.03H243.941L242.191 202.885C243.801 201.555 245.737 200.89 248.001 200.89ZM278.145 209.185C278.145 210.048 278.04 211.005 277.83 212.055H263.41C263.597 214.622 265.218 215.905 268.275 215.905C269.232 215.905 270.142 215.753 271.005 215.45C271.892 215.147 272.662 214.715 273.315 214.155L275.59 217.76C274.54 218.6 273.338 219.23 271.985 219.65C270.632 220.07 269.208 220.28 267.715 220.28C265.778 220.28 264.075 219.942 262.605 219.265C261.158 218.565 260.038 217.573 259.245 216.29C258.475 215.007 258.09 213.525 258.09 211.845C258.09 209.768 258.557 207.902 259.49 206.245C260.447 204.565 261.765 203.258 263.445 202.325C265.125 201.368 267.038 200.89 269.185 200.89C271.005 200.89 272.58 201.228 273.91 201.905C275.263 202.582 276.302 203.55 277.025 204.81C277.772 206.07 278.145 207.528 278.145 209.185ZM268.94 204.985C267.657 204.985 266.572 205.335 265.685 206.035C264.798 206.712 264.168 207.657 263.795 208.87H273.14C273.14 207.657 272.755 206.712 271.985 206.035C271.238 205.335 270.223 204.985 268.94 204.985ZM304.295 200.89C306.395 200.89 308.063 201.45 309.3 202.57C310.536 203.667 311.155 205.242 311.155 207.295C311.155 208.065 311.073 208.823 310.91 209.57L308.81 220H303.35L305.38 209.92C305.473 209.523 305.52 209.092 305.52 208.625C305.52 207.645 305.251 206.898 304.715 206.385C304.178 205.872 303.373 205.615 302.3 205.615C300.9 205.615 299.733 206.023 298.8 206.84C297.89 207.633 297.271 208.835 296.945 210.445L295.055 220H289.595L293.34 201.17H298.52L298.1 203.2C299.78 201.66 301.845 200.89 304.295 200.89ZM334.439 209.185C334.439 210.048 334.334 211.005 334.124 212.055H319.704C319.891 214.622 321.512 215.905 324.569 215.905C325.526 215.905 326.436 215.753 327.299 215.45C328.186 215.147 328.956 214.715 329.609 214.155L331.884 217.76C330.834 218.6 329.632 219.23 328.279 219.65C326.926 220.07 325.502 220.28 324.009 220.28C322.072 220.28 320.369 219.942 318.899 219.265C317.452 218.565 316.332 217.573 315.539 216.29C314.769 215.007 314.384 213.525 314.384 211.845C314.384 209.768 314.851 207.902 315.784 206.245C316.741 204.565 318.059 203.258 319.739 202.325C321.419 201.368 323.332 200.89 325.479 200.89C327.299 200.89 328.874 201.228 330.204 201.905C331.557 202.582 332.596 203.55 333.319 204.81C334.066 206.07 334.439 207.528 334.439 209.185ZM325.234 204.985C323.951 204.985 322.866 205.335 321.979 206.035C321.092 206.712 320.462 207.657 320.089 208.87H329.434C329.434 207.657 329.049 206.712 328.279 206.035C327.532 205.335 326.517 204.985 325.234 204.985ZM348.204 210.585L353.454 220H347.679L344.599 214.225L339.174 220H332.944L342.359 210.34L337.354 201.17H343.024L345.999 206.7L351.249 201.17H357.269L348.204 210.585ZM363.699 213.35C363.653 213.537 363.629 213.793 363.629 214.12C363.629 215.333 364.294 215.94 365.624 215.94C366.348 215.94 367.083 215.718 367.829 215.275L368.634 219.16C367.421 219.907 365.858 220.28 363.944 220.28C362.171 220.28 360.748 219.813 359.674 218.88C358.601 217.947 358.064 216.663 358.064 215.03C358.064 214.563 358.123 214.015 358.239 213.385L359.744 205.79H356.839L357.679 201.59H360.584L361.494 197.005H366.954L366.044 201.59H370.734L369.894 205.79H365.204L363.699 213.35ZM395.716 200.89C397.186 200.89 398.54 201.228 399.776 201.905C401.036 202.582 402.028 203.562 402.751 204.845C403.498 206.105 403.871 207.598 403.871 209.325C403.871 211.402 403.405 213.28 402.471 214.96C401.561 216.617 400.313 217.923 398.726 218.88C397.14 219.813 395.378 220.28 393.441 220.28C391.971 220.28 390.7 220.023 389.626 219.51C388.553 218.997 387.725 218.227 387.141 217.2L386.581 220H381.401L386.581 194.03H392.041L390.291 202.78C391.808 201.52 393.616 200.89 395.716 200.89ZM392.811 215.765C393.885 215.765 394.841 215.508 395.681 214.995C396.521 214.458 397.175 213.723 397.641 212.79C398.108 211.857 398.341 210.783 398.341 209.57C398.341 208.287 397.956 207.272 397.186 206.525C396.44 205.778 395.39 205.405 394.036 205.405C392.986 205.405 392.041 205.673 391.201 206.21C390.361 206.723 389.708 207.447 389.241 208.38C388.775 209.313 388.541 210.387 388.541 211.6C388.541 212.883 388.915 213.898 389.661 214.645C390.408 215.392 391.458 215.765 392.811 215.765ZM409.311 201.17H414.736L410.991 220H405.566L409.311 201.17ZM412.951 198.545C412.018 198.545 411.248 198.277 410.641 197.74C410.058 197.18 409.766 196.503 409.766 195.71C409.766 194.777 410.093 194.007 410.746 193.4C411.423 192.77 412.298 192.455 413.371 192.455C414.328 192.455 415.098 192.723 415.681 193.26C416.288 193.773 416.591 194.415 416.591 195.185C416.591 196.188 416.253 197.005 415.576 197.635C414.9 198.242 414.025 198.545 412.951 198.545ZM439.23 201.17L436.115 216.85C435.415 220.397 434.061 222.987 432.055 224.62C430.071 226.253 427.411 227.07 424.075 227.07C422.255 227.07 420.575 226.86 419.035 226.44C417.518 226.02 416.211 225.402 415.115 224.585L417.705 220.63C418.451 221.26 419.408 221.75 420.575 222.1C421.765 222.473 423.013 222.66 424.32 222.66C426.163 222.66 427.563 222.252 428.52 221.435C429.476 220.642 430.13 219.428 430.48 217.795L430.62 216.99C429.103 218.39 427.19 219.09 424.88 219.09C423.316 219.09 421.905 218.775 420.645 218.145C419.385 217.492 418.381 216.57 417.635 215.38C416.911 214.19 416.55 212.79 416.55 211.18C416.55 209.267 417.005 207.528 417.915 205.965C418.825 204.402 420.073 203.165 421.66 202.255C423.27 201.345 425.066 200.89 427.05 200.89C428.52 200.89 429.803 201.17 430.9 201.73C432.02 202.267 432.86 203.107 433.42 204.25L434.015 201.17H439.23ZM426.35 214.61C427.936 214.61 429.243 214.097 430.27 213.07C431.296 212.043 431.81 210.725 431.81 209.115C431.81 207.972 431.436 207.073 430.69 206.42C429.943 205.743 428.905 205.405 427.575 205.405C425.965 205.405 424.635 205.918 423.585 206.945C422.558 207.972 422.045 209.29 422.045 210.9C422.045 212.043 422.43 212.953 423.2 213.63C423.97 214.283 425.02 214.61 426.35 214.61ZM457.898 213.35C457.852 213.537 457.828 213.793 457.828 214.12C457.828 215.333 458.493 215.94 459.823 215.94C460.547 215.94 461.282 215.718 462.028 215.275L462.833 219.16C461.62 219.907 460.057 220.28 458.143 220.28C456.37 220.28 454.947 219.813 453.873 218.88C452.8 217.947 452.263 216.663 452.263 215.03C452.263 214.563 452.322 214.015 452.438 213.385L453.943 205.79H451.038L451.878 201.59H454.783L455.693 197.005H461.153L460.243 201.59H464.933L464.093 205.79H459.403L457.898 213.35ZM480.388 200.89C482.488 200.89 484.157 201.45 485.393 202.57C486.63 203.69 487.248 205.277 487.248 207.33C487.248 208.077 487.167 208.823 487.003 209.57L484.903 220H479.443L481.473 209.92C481.567 209.523 481.613 209.092 481.613 208.625C481.613 207.645 481.345 206.898 480.808 206.385C480.272 205.872 479.467 205.615 478.393 205.615C476.993 205.615 475.827 206.023 474.893 206.84C473.983 207.633 473.365 208.835 473.038 210.445L471.148 220H465.688L470.868 194.03H476.328L474.578 202.885C476.188 201.555 478.125 200.89 480.388 200.89ZM493.633 201.17H499.058L495.313 220H489.888L493.633 201.17ZM497.273 198.545C496.339 198.545 495.569 198.277 494.963 197.74C494.379 197.18 494.088 196.503 494.088 195.71C494.088 194.777 494.414 194.007 495.068 193.4C495.744 192.77 496.619 192.455 497.693 192.455C498.649 192.455 499.419 192.723 500.003 193.26C500.609 193.773 500.913 194.415 500.913 195.185C500.913 196.188 500.574 197.005 499.898 197.635C499.221 198.242 498.346 198.545 497.273 198.545ZM515.081 200.89C517.181 200.89 518.849 201.45 520.086 202.57C521.322 203.667 521.941 205.242 521.941 207.295C521.941 208.065 521.859 208.823 521.696 209.57L519.596 220H514.136L516.166 209.92C516.259 209.523 516.306 209.092 516.306 208.625C516.306 207.645 516.037 206.898 515.501 206.385C514.964 205.872 514.159 205.615 513.086 205.615C511.686 205.615 510.519 206.023 509.586 206.84C508.676 207.633 508.057 208.835 507.731 210.445L505.841 220H500.381L504.126 201.17H509.306L508.886 203.2C510.566 201.66 512.631 200.89 515.081 200.89ZM547.955 201.17L544.84 216.85C544.14 220.397 542.787 222.987 540.78 224.62C538.797 226.253 536.137 227.07 532.8 227.07C530.98 227.07 529.3 226.86 527.76 226.44C526.243 226.02 524.937 225.402 523.84 224.585L526.43 220.63C527.177 221.26 528.133 221.75 529.3 222.1C530.49 222.473 531.738 222.66 533.045 222.66C534.888 222.66 536.288 222.252 537.245 221.435C538.202 220.642 538.855 219.428 539.205 217.795L539.345 216.99C537.828 218.39 535.915 219.09 533.605 219.09C532.042 219.09 530.63 218.775 529.37 218.145C528.11 217.492 527.107 216.57 526.36 215.38C525.637 214.19 525.275 212.79 525.275 211.18C525.275 209.267 525.73 207.528 526.64 205.965C527.55 204.402 528.798 203.165 530.385 202.255C531.995 201.345 533.792 200.89 535.775 200.89C537.245 200.89 538.528 201.17 539.625 201.73C540.745 202.267 541.585 203.107 542.145 204.25L542.74 201.17H547.955ZM535.075 214.61C536.662 214.61 537.968 214.097 538.995 213.07C540.022 212.043 540.535 210.725 540.535 209.115C540.535 207.972 540.162 207.073 539.415 206.42C538.668 205.743 537.63 205.405 536.3 205.405C534.69 205.405 533.36 205.918 532.31 206.945C531.283 207.972 530.77 209.29 530.77 210.9C530.77 212.043 531.155 212.953 531.925 213.63C532.695 214.283 533.745 214.61 535.075 214.61ZM569.039 220.28C567.149 220.28 565.481 219.93 564.034 219.23C562.611 218.53 561.502 217.55 560.709 216.29C559.939 215.007 559.554 213.525 559.554 211.845C559.554 209.768 560.044 207.902 561.024 206.245C562.004 204.588 563.357 203.282 565.084 202.325C566.811 201.368 568.759 200.89 570.929 200.89C572.842 200.89 574.511 201.24 575.934 201.94C577.357 202.64 578.454 203.632 579.224 204.915C580.017 206.175 580.414 207.645 580.414 209.325C580.414 211.402 579.924 213.268 578.944 214.925C577.987 216.582 576.634 217.888 574.884 218.845C573.157 219.802 571.209 220.28 569.039 220.28ZM569.389 215.765C570.439 215.765 571.384 215.508 572.224 214.995C573.064 214.458 573.717 213.723 574.184 212.79C574.651 211.857 574.884 210.783 574.884 209.57C574.884 208.287 574.511 207.272 573.764 206.525C573.017 205.778 571.967 205.405 570.614 205.405C569.541 205.405 568.584 205.673 567.744 206.21C566.904 206.723 566.251 207.447 565.784 208.38C565.317 209.313 565.084 210.387 565.084 211.6C565.084 212.883 565.457 213.898 566.204 214.645C566.974 215.392 568.036 215.765 569.389 215.765ZM596.804 200.89C598.904 200.89 600.573 201.45 601.809 202.57C603.046 203.667 603.664 205.242 603.664 207.295C603.664 208.065 603.583 208.823 603.419 209.57L601.319 220H595.859L597.889 209.92C597.983 209.523 598.029 209.092 598.029 208.625C598.029 207.645 597.761 206.898 597.224 206.385C596.688 205.872 595.883 205.615 594.809 205.615C593.409 205.615 592.243 206.023 591.309 206.84C590.399 207.633 589.781 208.835 589.454 210.445L587.564 220H582.104L585.849 201.17H591.029L590.609 203.2C592.289 201.66 594.354 200.89 596.804 200.89ZM637.146 207.365C638.196 207.785 639.001 208.415 639.561 209.255C640.144 210.072 640.436 211.075 640.436 212.265C640.436 214.808 639.432 216.733 637.426 218.04C635.419 219.347 632.747 220 629.411 220H616.566L621.466 195.5H633.296C635.932 195.5 637.962 195.99 639.386 196.97C640.809 197.927 641.521 199.303 641.521 201.1C641.521 202.593 641.124 203.877 640.331 204.95C639.561 206 638.499 206.805 637.146 207.365ZM626.226 199.77L625.071 205.545H630.846C632.339 205.545 633.494 205.253 634.311 204.67C635.151 204.063 635.571 203.2 635.571 202.08C635.571 200.54 634.369 199.77 631.966 199.77H626.226ZM629.761 215.73C631.347 215.73 632.584 215.427 633.471 214.82C634.357 214.213 634.801 213.338 634.801 212.195C634.801 210.515 633.576 209.675 631.126 209.675H624.266L623.076 215.73H629.761ZM651.868 220.42C649.932 220.42 648.077 220.163 646.303 219.65C644.53 219.137 643.107 218.483 642.033 217.69L644.343 213.315C645.463 214.132 646.723 214.762 648.123 215.205C649.523 215.648 650.958 215.87 652.428 215.87C653.992 215.87 655.228 215.613 656.138 215.1C657.048 214.587 657.503 213.887 657.503 213C657.503 212.277 657.142 211.728 656.418 211.355C655.695 210.958 654.54 210.538 652.953 210.095C651.367 209.628 650.072 209.185 649.068 208.765C648.065 208.322 647.19 207.668 646.443 206.805C645.72 205.942 645.358 204.798 645.358 203.375C645.358 201.718 645.813 200.26 646.723 199C647.657 197.74 648.963 196.772 650.643 196.095C652.347 195.418 654.318 195.08 656.558 195.08C658.215 195.08 659.778 195.267 661.248 195.64C662.718 195.99 663.978 196.503 665.028 197.18L662.893 201.52C661.983 200.89 660.957 200.423 659.813 200.12C658.67 199.793 657.48 199.63 656.243 199.63C654.633 199.63 653.362 199.91 652.428 200.47C651.495 201.03 651.028 201.753 651.028 202.64C651.028 203.177 651.227 203.632 651.623 204.005C652.02 204.355 652.522 204.647 653.128 204.88C653.735 205.09 654.587 205.347 655.683 205.65C657.247 206.07 658.53 206.502 659.533 206.945C660.537 207.365 661.388 207.995 662.088 208.835C662.812 209.652 663.173 210.737 663.173 212.09C663.173 213.77 662.707 215.24 661.773 216.5C660.84 217.737 659.522 218.705 657.818 219.405C656.115 220.082 654.132 220.42 651.868 220.42ZM678.528 220.42C676.078 220.42 673.931 219.977 672.088 219.09C670.268 218.203 668.868 216.955 667.888 215.345C666.908 213.735 666.418 211.88 666.418 209.78C666.418 207.003 667.048 204.507 668.308 202.29C669.591 200.05 671.388 198.288 673.698 197.005C676.008 195.722 678.656 195.08 681.643 195.08C683.836 195.08 685.773 195.453 687.453 196.2C689.133 196.947 690.404 198.02 691.268 199.42L687.173 202.78C685.866 200.867 683.894 199.91 681.258 199.91C679.461 199.91 677.874 200.33 676.498 201.17C675.121 202.01 674.048 203.153 673.278 204.6C672.531 206.047 672.158 207.657 672.158 209.43C672.158 211.32 672.753 212.825 673.943 213.945C675.156 215.042 676.848 215.59 679.018 215.59C681.608 215.59 683.778 214.645 685.528 212.755L688.888 216.185C686.461 219.008 683.008 220.42 678.528 220.42ZM693.862 220.28C692.929 220.28 692.159 219.988 691.552 219.405C690.945 218.798 690.642 218.04 690.642 217.13C690.642 216.057 690.992 215.182 691.692 214.505C692.392 213.828 693.255 213.49 694.282 213.49C695.215 213.49 695.974 213.782 696.557 214.365C697.164 214.948 697.467 215.707 697.467 216.64C697.467 217.69 697.105 218.565 696.382 219.265C695.682 219.942 694.842 220.28 693.862 220.28Z" fill="#BFBFBF"/>
</svg>
